<svg xmlns="http://www.w3.org/2000/svg" width="32" height="32" fill="none" viewBox="0 0 32 32"><g clip-path="url(#a)"><path fill="#049A9B" d="M15.923 21.937c.882 0 1.756-.016 2.639 0a2.677 2.677 0 0 1 2.606 2.129c.154.729.041 1.45-.178 2.153-.72 2.34-2.97 3.886-5.424 3.732-2.606-.162-4.727-2.25-4.954-4.849-.081-.915.121-1.724.785-2.388.494-.486 1.093-.769 1.79-.777.914 0 1.82.008 2.736 0Zm-.017.915c-.882 0-1.756-.008-2.639 0-.81.008-1.497.534-1.692 1.311-.073.3-.073.623-.04.931.218 2.566 2.752 4.412 5.262 3.87a4.47 4.47 0 0 0 3.513-4.056c.09-1.214-.817-2.105-1.886-2.073-.834.033-1.676.017-2.518.017Z"/><path stroke="#049A9B" stroke-width=".267" d="M15.923 21.937c.882 0 1.756-.016 2.639 0a2.677 2.677 0 0 1 2.606 2.129c.154.729.041 1.45-.178 2.153-.72 2.34-2.97 3.886-5.424 3.732-2.606-.162-4.727-2.25-4.954-4.849-.081-.915.121-1.724.785-2.388.494-.486 1.093-.769 1.79-.777.914 0 1.82.008 2.736 0Zm-.017.915c-.882 0-1.756-.008-2.639 0-.81.008-1.497.534-1.692 1.311-.073.3-.073.623-.04.931.218 2.566 2.752 4.412 5.262 3.87a4.47 4.47 0 0 0 3.513-4.056c.09-1.214-.817-2.105-1.886-2.073-.834.033-1.676.017-2.518.017Z"/><path fill="#049A9B" stroke="#049A9B" stroke-width=".267" d="m17.307.402 1.385.122c2.023.186 4.007.518 5.901 1.279.591.234 1.166.518 1.676.906.235.187.462.389.672.616.38.42.575.923.567 1.49-.008.404-.008.809 0 1.214.016.623-.21 1.141-.624 1.594-.461.502-1.02.859-1.619 1.15-1.15.567-2.372.907-3.627 1.158-.137.024-.275.056-.485.097.113.048.17.08.226.089 1.077.25 2.13.566 3.133 1.036.72.332 1.393.737 1.976 1.287.696.664 1.044 1.45 1.036 2.429a869.748 869.748 0 0 0 0 11.26c.008 1.118-.43 1.968-1.255 2.664-.834.704-1.797 1.158-2.81 1.522-1.44.518-2.93.826-4.452.988-.534.056-1.068.089-1.603.137-.064.008-.137.033-.202.04h-2.55l-1.295-.12c-2.121-.211-4.202-.616-6.145-1.539-.858-.405-1.643-.906-2.25-1.667a2.76 2.76 0 0 1-.632-1.822c.008-1.344 0-2.688 0-4.04 0-.113 0-.226.033-.332a.436.436 0 0 1 .485-.323.448.448 0 0 1 .389.404c.008.09.008.179.008.276 0 1.303.016 2.615-.008 3.918-.008.656.227 1.182.68 1.627.59.591 1.303.98 2.064 1.312 1.247.542 2.559.866 3.902 1.085a25.26 25.26 0 0 0 4.866.3c2.161-.074 4.29-.357 6.338-1.086.907-.324 1.79-.712 2.534-1.344.235-.202.446-.437.64-.68.235-.291.34-.64.34-1.02v-9.714c0-.04-.008-.081-.008-.13-.032.008-.073.008-.09.024-.89.834-1.958 1.344-3.092 1.75-1.44.517-2.938.809-4.46.979-1.636.186-3.27.226-4.906.105-2.073-.146-4.113-.494-6.064-1.263-.963-.38-1.87-.858-2.639-1.579-.016-.016-.032-.016-.08-.032-.009.08-.017.154-.017.227v3.003c0 .389-.154.6-.445.607-.292.008-.47-.218-.47-.615 0-1.627.033-3.262-.008-4.89-.024-1.117.421-1.967 1.247-2.671.834-.705 1.789-1.174 2.809-1.522.745-.26 1.506-.454 2.323-.696-.194-.04-.34-.073-.493-.106-1.174-.234-2.324-.55-3.409-1.052-.615-.283-1.198-.623-1.692-1.101-.518-.502-.81-1.101-.777-1.838.016-.372.008-.745 0-1.125-.008-.583.194-1.085.583-1.522.437-.494.972-.85 1.554-1.141 1.166-.591 2.405-.94 3.676-1.207a27.149 27.149 0 0 1 4.12-.502c.09 0 .178-.032.268-.048.914.032 1.845.032 2.776.032ZM15.915 10.45c-.607.024-1.214.048-1.822.08-1.724.106-3.416.381-5.051.924-.899.291-1.757.663-2.534 1.214-.405.291-.777.615-1.028 1.052-.324.543-.332 1.101.008 1.636.162.25.364.485.583.696.453.429.987.737 1.546.996 1.83.858 3.772 1.238 5.764 1.44 1.368.138 2.744.163 4.12.074 1.644-.106 3.255-.332 4.834-.802 1.012-.3 1.983-.68 2.865-1.271.381-.25.73-.542 1.004-.915.51-.696.51-1.376 0-2.064-.34-.462-.793-.802-1.287-1.093-.737-.445-1.538-.77-2.356-1.02-2.17-.68-4.387-.923-6.646-.947ZM5.326 4.36c.704-.534 1.49-.907 2.307-1.206.17-.065.34-.13.518-.17a.44.44 0 0 1 .51.275.442.442 0 0 1-.202.55c-.09.049-.186.073-.283.114-.478.202-.956.388-1.417.607-.445.218-.858.502-1.182.882-.445.518-.462 1.053.008 1.547a5 5 0 0 0 .915.736c.59.38 1.247.624 1.91.834 1.765.567 3.579.834 5.416.955 2.494.162 4.97.057 7.432-.413 1.174-.226 2.323-.534 3.416-1.036.526-.243 1.028-.518 1.441-.939.624-.623.632-1.238-.016-1.838a4.876 4.876 0 0 0-1.036-.728c-1.085-.591-2.267-.915-3.465-1.166-1.441-.307-2.898-.461-4.363-.518a30.002 30.002 0 0 0-6.258.372c-.203.033-.397.073-.6.081a.428.428 0 0 1-.429-.356.442.442 0 0 1 .26-.494.946.946 0 0 1 .202-.056c1.1-.138 2.202-.332 3.311-.413a29.738 29.738 0 0 1 7.343.348c1.32.227 2.614.542 3.829 1.109.55.251 1.068.583 1.635.899-.113-.17-.202-.365-.34-.494a6.333 6.333 0 0 0-.907-.705c-.64-.396-1.343-.655-2.056-.874-2.097-.64-4.25-.89-6.428-.955-2.104-.065-4.201.073-6.282.478-1.214.234-2.404.55-3.521 1.084-.446.219-.875.462-1.239.81-.186.194-.364.397-.429.68Z"/><path fill="#049A9B" stroke="#049A9B" stroke-width=".267" d="M19.227 16.925c.688-.13 1.36-.235 2.032-.38.825-.17 1.627-.413 2.38-.794.307-.154.599-.34.866-.558.518-.43.51-.842.016-1.296-.421-.38-.923-.607-1.441-.817-.138-.057-.283-.106-.421-.162-.251-.114-.356-.34-.267-.567.089-.235.3-.364.558-.283.85.283 1.668.631 2.308 1.279.728.745.728 1.651 0 2.396-.518.534-1.174.85-1.854 1.117-1.069.421-2.186.664-3.311.842a26.783 26.783 0 0 1-4.963.292c-2.04-.065-4.056-.284-6.007-.89-.615-.195-1.23-.422-1.773-.77-.307-.202-.615-.429-.866-.704-.615-.672-.599-1.506.008-2.194.373-.43.85-.713 1.352-.956.988-.477 2.048-.76 3.117-.955 2.502-.47 5.02-.558 7.553-.324.753.073 1.506.187 2.25.308a.66.66 0 0 1 .365.235c.121.146.089.324-.024.478-.122.161-.284.21-.486.178-.543-.081-1.077-.17-1.62-.235-1.513-.178-3.027-.202-4.54-.13a22.41 22.41 0 0 0-3.668.454c-.818.178-1.635.396-2.396.752a5.473 5.473 0 0 0-.988.583c-.615.478-.615.964 0 1.433a5.42 5.42 0 0 0 1.069.624c1.068.485 2.202.728 3.351.915.251.04.502.072.761.105.008-.033.024-.057.024-.081-.137-.51.073-.867.486-1.134.397-.267.834-.396 1.295-.485a7.53 7.53 0 0 1 3.425.089c.243.065.486.154.704.267.615.3.794.631.705 1.368Zm-.883-.437c-.17-.081-.324-.194-.494-.235-.461-.113-.923-.227-1.392-.275-.842-.081-1.676-.016-2.477.267-.17.057-.332.162-.518.25.858.802 4.153.77 4.881-.007Z"/><path fill="#049A9B" stroke="#049A9B" stroke-width=".267" d="M10.394 15.411a.437.437 0 0 1-.437-.445c0-.26.21-.462.461-.454a.48.48 0 0 1 .446.454.46.46 0 0 1-.47.445Zm11.026 0a.45.45 0 0 1-.462-.453c.008-.235.21-.446.445-.446a.445.445 0 0 1 .454.462.435.435 0 0 1-.438.437Zm-5.504-2.348a.43.43 0 0 1 .437.47.437.437 0 0 1-.453.429.43.43 0 0 1-.437-.47.442.442 0 0 1 .453-.429Zm-2.455.875a.45.45 0 0 1-.47.445.43.43 0 0 1-.428-.445.43.43 0 0 1 .461-.446.453.453 0 0 1 .437.446Zm5.797.008c0 .25-.186.437-.437.437a.445.445 0 1 1-.016-.89.425.425 0 0 1 .453.453Zm-4.007-5.084c-1.174 0-3.003-.13-4.8-.502-.794-.162-1.58-.357-2.3-.737a3.581 3.581 0 0 1-.801-.542c-.575-.535-.583-1.255 0-1.773a4.19 4.19 0 0 1 1.02-.648c.947-.429 1.96-.64 2.971-.801 2.024-.324 4.064-.405 6.112-.3 1.814.09 3.61.275 5.343.85.445.146.875.364 1.287.591.21.113.389.291.543.478.364.445.356.971.008 1.424-.227.292-.526.494-.858.664-.656.348-1.368.55-2.089.72-1.894.43-3.83.568-6.436.576Zm-1.546-4.323c-.146 0-.291-.017-.43 0-.857.113-1.723.218-2.582.372-.712.13-1.424.316-2.072.648a3.246 3.246 0 0 0-.648.437c-.178.146-.17.25-.008.405.114.113.243.226.38.291.47.202.94.43 1.434.567 1.683.47 3.416.64 5.156.68 2.138.056 4.267-.04 6.364-.486.655-.138 1.303-.3 1.902-.607.243-.122.47-.284.672-.454.162-.137.154-.234.008-.388a1.677 1.677 0 0 0-.38-.3 6.702 6.702 0 0 0-.85-.388c-1.158-.413-2.364-.6-3.587-.729-.308-.032-.615-.048-.947-.08.097.453-.065.776-.389 1.011-.17.122-.364.219-.558.3-.486.186-1.004.226-1.522.194-.445-.032-.883-.113-1.28-.324-.469-.243-.752-.59-.663-1.15Zm3.48.226c-.647-.461-2.12-.437-2.533.025.494.437 2.105.412 2.534-.025Zm-1.279 21.203h-2.12c-.567 0-.859-.291-.867-.858a16.023 16.023 0 0 1 0-.883c.016-.461.308-.769.761-.769a407.92 407.92 0 0 1 4.453 0c.453 0 .745.308.76.77.009.315.009.623 0 .938-.015.486-.315.786-.809.794-.72.008-1.449.008-2.178.008Zm2.065-1.579h-4.12v.648h4.12v-.648Zm-4.323 3.093a.45.45 0 0 1-.462-.454c0-.243.203-.445.446-.453.25-.008.47.21.461.461a.472.472 0 0 1-.445.446Zm1.052-.438a.461.461 0 0 1 .453-.47c.234 0 .445.203.453.438a.443.443 0 0 1-.42.461.446.446 0 0 1-.487-.429Zm1.953-.469a.467.467 0 0 1 .47.42.455.455 0 0 1-.908.057.46.46 0 0 1 .438-.477Zm1.537 0c.25 0 .46.218.453.47a.455.455 0 0 1-.907 0 .461.461 0 0 1 .453-.47Z"/></g><defs><clipPath id="a"><path fill="#fff" d="M3.55 0h24.9v32H3.55z"/></clipPath></defs></svg>