<svg xmlns="http://www.w3.org/2000/svg" width="32" height="32" fill="none" viewBox="0 0 32 32"><g clip-path="url(#a)"><g fill="#049A9B" stroke="#049A9B" stroke-width=".444" clip-path="url(#b)"><path d="M21.071.378c.38.08.77.146 1.15.243 2.973.802 5.079 3.588 4.957 6.666-.113 2.819-1.515 4.836-4.074 6.05a2.633 2.633 0 0 1-.267.122c.437.51.397 1.101.332 1.685-.073.68-.616 1.182-1.304 1.223-.664.04-1.337.016-2 .024h-.454c.105.17.186.292.267.413.227.34.453.672.672 1.013.09.137.186.202.348.186.13-.016.268-.008.397 0 .251.024.413.194.421.43a.45.45 0 0 1-.388.469c-.13.016-.26 0-.413 0v.761c.332.04.793-.064.793.462 0 .527-.453.43-.802.486v.72c.34.041.786-.048.802.495.008.3-.153.389-.802.462v.729c.34.032.794-.065.802.486.008.291-.153.38-.802.47v.696c.34.065.835-.04.794.526-.032.478-.445.397-.794.414v.753c.34.032.778-.057.802.486.008.3-.17.397-.802.462v.729c.138.008.268.008.397.024.243.024.397.178.413.413.017.243-.121.421-.372.478a.446.446 0 0 1-.178.016c-.422-.081-.697.122-.964.413-.494.535-1.02 1.037-1.54 1.547-.194.186-.396.373-.59.55h-3.645c-.754-.744-1.523-1.473-2.26-2.235-.203-.202-.397-.316-.689-.283a1.16 1.16 0 0 1-.332-.016c-.25-.049-.389-.227-.372-.478.016-.227.162-.38.413-.413.13-.017.259-.017.405-.025v-.737c-.348-.04-.81.049-.81-.518 0-.292.17-.373.794-.43v-.728c-.34-.057-.835.056-.794-.519.032-.478.453-.397.794-.429v-.737c-.114 0-.227.008-.349 0-.291-.024-.461-.203-.461-.462 0-.267.178-.429.47-.445.097-.008.202 0 .323 0v-.762c-.34-.04-.81.065-.793-.51.008-.291.178-.372.801-.437v-.713c-.34-.057-.793.049-.793-.486 0-.527.461-.43.802-.47v-.753c-.114 0-.22.008-.332 0-.308-.016-.487-.203-.478-.47.008-.26.194-.47.477-.43.454.066.697-.137.908-.51.194-.364.453-.688.704-1.077-.13-.008-.226-.024-.324-.024h-1.79c-1.101 0-1.66-.567-1.668-1.66-.008-.454.032-.891.34-1.248-.413-.219-.826-.413-1.207-.656-4.042-2.543-4.18-8.464-.26-11.202a.682.682 0 0 1 .211-.121c.211-.073.405-.025.535.17a.417.417 0 0 1-.024.534c-.073.081-.17.146-.26.21C6.37 3.837 5.512 5.717 5.877 8.025c.38 2.39 1.806 3.977 4.123 4.698.518.162 1.093.219 1.644.227 1.984.024 3.969.008 5.953.008.097 0 .203-.008.3.008.243.04.397.235.397.462a.45.45 0 0 1-.421.437c-.09.008-.179 0-.276 0H10.55c-.599 0-.761.162-.761.753v.3c.016.316.186.502.502.543.114.016.219.008.332.008h10.846c.089 0 .186 0 .275-.008a.756.756 0 0 0 .235-.049c.3-.121.413-.518.316-1.085-.049-.284-.26-.462-.583-.47-.535-.008-1.07 0-1.612 0-.373 0-.591-.17-.591-.462.008-.283.218-.462.6-.445.947.032 1.854-.106 2.72-.494 2.341-1.045 3.702-3.467 3.41-6.083-.267-2.406-2.243-4.512-4.665-4.982-1.223-.235-2.405-.113-3.523.405-1.345.624-2.665.624-4.01 0-1.198-.559-2.446-.664-3.734-.364-.072.016-.137.032-.21.04-.267.025-.454-.105-.502-.332-.057-.25.056-.47.316-.534.283-.081.575-.122.858-.179.081-.016.154-.04.227-.056h1.28c.024.016.048.04.08.04.827.081 1.588.349 2.35.68.907.398 1.83.365 2.737-.016.316-.13.632-.283.956-.38.462-.13.94-.219 1.41-.324.413.008.842.008 1.263.008Zm-1.32 26.907H16.34c-.09 0-.187.008-.276-.008a.451.451 0 0 1-.38-.445c0-.227.17-.422.413-.454.08-.008.162 0 .243 0h3.41v-.745h-7.436v.745h.324c.454 0 .907-.008 1.369 0 .275.008.446.186.454.43.008.259-.162.453-.446.477-.097.008-.202 0-.3 0h-1.4v.745h7.443c-.008-.259-.008-.486-.008-.745Zm-.39-9.314c-.347-.527-.671-1.021-1.012-1.507-.04-.057-.162-.081-.242-.081-1.386-.008-2.77-.008-4.156 0-.08 0-.202.024-.243.081-.34.486-.664.98-1.012 1.507h6.666ZM12.98 28.986c.535.535 1.02 1.037 1.531 1.523.057.057.187.049.284.049.745 0 1.498-.017 2.243.008.357.016.6-.09.843-.349.38-.413.802-.785 1.207-1.174-.017-.024-.033-.04-.05-.065-2.008.008-4.008.008-6.058.008Zm-.672-9.347h7.444v-.729h-7.444v.73Zm0 3.37h7.436v-.746h-7.436v.745Zm0-1.685h7.436v-.73h-7.436v.73Zm-.008 3.337h7.444v-.705H12.3v.705Z"/><path d="M16.04 4a6.619 6.619 0 0 1-2.56-.6c-.21-.097-.34-.251-.315-.502.024-.22.162-.357.372-.381.122-.016.26.032.373.08a5.46 5.46 0 0 0 2.025.454 5.056 5.056 0 0 0 2.154-.437l.17-.073c.252-.089.486 0 .592.219.105.219.032.486-.21.591-.43.178-.867.348-1.313.454-.421.113-.858.13-1.288.194Z"/></g></g><defs><clipPath id="a"><path fill="#fff" d="M4.438 0h23.124v32H4.438z"/></clipPath><clipPath id="b"><path fill="#fff" d="M4.444 0h23.111v32H4.445z"/></clipPath></defs></svg>