<svg xmlns="http://www.w3.org/2000/svg" xmlns:xlink="http://www.w3.org/1999/xlink" width="32" height="32" fill="none" viewBox="0 0 32 32"><defs><path id="e" fill="#fff" d="M0 0h32v32H0z"/></defs><g clip-path="url(#a)"><g clip-path="url(#b)"><g clip-path="url(#c)"><mask id="d" width="33" height="32" x="-1" y="0" maskUnits="userSpaceOnUse" style="mask-type:luminance"><path fill="#fff" d="M32 .583H0v31.11h32V.584Z"/></mask><g stroke="#049A9B" stroke-linecap="round" stroke-linejoin="round" stroke-width=".889" mask="url(#d)"><path d="m13.269 13.027-1.998 2 12.833 15.617 4.696-4.696-15.531-12.92ZM1.94 9.767a4.232 4.232 0 0 1 5.984-5.983 4.232 4.232 0 0 1 .498 5.383l4.353 4.353-1.096 1.096-4.355-4.35a4.228 4.228 0 0 1-5.384-.499Z"/><path d="M4.947 9.537a2.746 2.746 0 1 0 0-5.492 2.746 2.746 0 0 0 0 5.492Zm21.821 16.28-2.808 2.808m-5.63-12.079 2.412-3.64-2.265-1.822-3.295 3.345m-2.636 2.738-8.38 8.51 5.316 4.287 6.216-9.29"/><path d="m18.968 11.51 5.497-6.82 5.302-2.434s.976-.398 1.342.477c.302.725-.558 1.103-.558 1.103l-4.97 2.27-5.244 6.506M9.346 27.971l-3.099-2.498"/></g></g></g></g><defs><clipPath id="a"><use xlink:href="#e"/></clipPath><clipPath id="b"><use xlink:href="#e"/></clipPath><clipPath id="c"><use xlink:href="#e"/></clipPath></defs></svg>