<svg xmlns="http://www.w3.org/2000/svg" width="33" height="32" fill="none" viewBox="0 0 33 32"><path fill="#049A9B" fill-rule="evenodd" d="M20.297 6.785a.495.495 0 0 1 .55-.403l.025.004.097.017c4.071.755 6.798 2.676 8.598 5.301 2.33 3.4 3.062 7.924 3.285 12.437C32.985 26.837 30.765 29 28.1 29c-2.69 0-4.767-2.182-5.026-4.782-.146-1.472-.38-2.672-.694-3.645-2.118.677-3.846 1.038-5.575 1.045-1.726.007-3.42-.34-5.475-1.036-.313.971-.545 2.169-.691 3.636C10.38 26.818 8.304 29 5.614 29 2.95 29 .73 26.837.864 24.141c.222-4.513.954-9.036 3.284-12.436 1.828-2.667 5.076-4.583 9.19-5.32a.495.495 0 1 1 .175.974c-3.923.702-6.906 2.508-8.548 4.904-2.167 3.162-2.893 7.45-3.113 11.927-.104 2.095 1.626 3.822 3.762 3.822 2.113 0 3.825-1.726 4.04-3.892.175-1.756.474-3.188.91-4.34.352-.934.797-1.692 1.346-2.289 1.237-1.345 2.912-1.783 4.926-1.738h.043c2.014-.045 3.689.393 4.925 1.738.55.597.995 1.355 1.347 2.288.436 1.153.734 2.585.91 4.341.215 2.166 1.927 3.892 4.04 3.892 2.136 0 3.865-1.728 3.762-3.822-.22-4.478-.946-8.765-3.113-11.927-1.644-2.398-4.137-4.18-7.963-4.888l-.09-.016-.025-.006a.494.494 0 0 1-.375-.568Zm-7.861 11.613a5.85 5.85 0 0 0-.752 1.26c1.975.667 3.547.978 5.118.971 1.575-.006 3.18-.331 5.225-.98a5.839 5.839 0 0 0-.747-1.25c-1.725.555-3.12.826-4.506.816-1.38-.01-2.722-.298-4.338-.817Zm3.894-1.657c-1.268.028-2.277.295-3.08.875 1.331.398 2.428.602 3.531.61 1.115.008 2.261-.184 3.685-.61-.803-.58-1.812-.847-3.081-.875v.015l-.509-.013h-.038l-.508.014v-.016Z" clip-rule="evenodd"/><path fill="#049A9B" fill-rule="evenodd" d="M5.636 20.598a2.73 2.73 0 0 1 2.732 2.73 2.73 2.73 0 0 1-2.732 2.728 2.73 2.73 0 0 1-2.733-2.729 2.73 2.73 0 0 1 2.733-2.729Zm0 .989a1.742 1.742 0 1 0 0 3.48c.962 0 1.743-.779 1.743-1.74s-.78-1.74-1.743-1.74Zm22.464-.989a2.73 2.73 0 0 1 2.733 2.73 2.73 2.73 0 0 1-2.732 2.728 2.73 2.73 0 0 1-2.733-2.729 2.73 2.73 0 0 1 2.733-2.729Zm0 .989a1.742 1.742 0 1 0 0 3.48 1.741 1.741 0 1 0 .001-3.48ZM7.142 13.722a2.73 2.73 0 0 1 2.733 2.73 2.73 2.73 0 0 1-2.733 2.728 2.73 2.73 0 0 1-2.733-2.729 2.73 2.73 0 0 1 2.733-2.729Zm0 .989a1.74 1.74 0 1 0 0 3.48 1.742 1.742 0 1 0 0-3.48Zm19.238-.989a2.73 2.73 0 0 1 2.732 2.73 2.73 2.73 0 0 1-2.733 2.728 2.73 2.73 0 0 1-2.733-2.729 2.73 2.73 0 0 1 2.733-2.729Zm0 .989a1.74 1.74 0 1 0-.001 3.48 1.742 1.742 0 1 0 0-3.48ZM12.005 9.167a2.73 2.73 0 0 1 2.733 2.729 2.73 2.73 0 0 1-2.733 2.729 2.73 2.73 0 0 1-2.733-2.73 2.73 2.73 0 0 1 2.733-2.728Zm0 .988a1.742 1.742 0 1 0 0 3.481 1.742 1.742 0 1 0 0-3.48Zm9.726-.988a2.73 2.73 0 0 1 2.733 2.729 2.73 2.73 0 0 1-2.733 2.729 2.73 2.73 0 0 1-2.733-2.73 2.73 2.73 0 0 1 2.733-2.728Zm0 .988a1.742 1.742 0 1 0 0 3.481c.963 0 1.743-.779 1.743-1.74s-.78-1.74-1.743-1.74ZM17.137 3a1.87 1.87 0 0 1 1.872 1.87v2.962c0 .309-.11.592-.292.813v4.172c0 .868-.704 1.571-1.574 1.571a1.572 1.572 0 0 1-1.574-1.571V8.763a1.286 1.286 0 0 1-.304-.833V4.87A1.87 1.87 0 0 1 17.137 3Zm0 .988a.882.882 0 0 0-.882.881V7.93c0 .168.136.304.304.304v4.598c.008.31.259.56.57.568h.014a.584.584 0 0 0 .584-.568V8.123a.29.29 0 0 0 .292-.291V4.869a.882.882 0 0 0-.882-.88Z" clip-rule="evenodd"/></svg>