<svg xmlns="http://www.w3.org/2000/svg" xmlns:xlink="http://www.w3.org/1999/xlink" width="32" height="32" fill="none" viewBox="0 0 32 32"><defs><path id="d" fill="#fff" d="M0 0h32v32H0z"/></defs><g clip-path="url(#a)"><g clip-path="url(#b)"><g fill="#049A9B" stroke="#049A9B" stroke-width=".622" clip-path="url(#c)"><path d="M13.874 12.868c3.551.925 7.15 1.154 10.775 1.514-.024-.164-.033-.295-.057-.418-.155-.818-.368-1.611-.728-2.364-.303-.63-.205-1.252.082-1.857.335-.72.834-1.3 1.505-1.735.466-.294.515-.458.213-.916a18.56 18.56 0 0 0-.933-1.333c-.483-.622-.532-1.301-.36-2.03.106-.466.188-.94.27-1.415.082-.474.016-.932-.09-1.399-.066-.286.033-.482.254-.531.237-.058.392.065.474.351.254.884.164 1.767-.049 2.635-.368 1.513-.229 1.456.54 2.528.23.319.458.654.646.998.36.63.189 1.292-.441 1.669-.671.4-1.162.957-1.44 1.693-.148.385-.131.753.04 1.13.459.957.753 1.98.827 3.027.057.769-.008 1.554-.14 2.315a19.76 19.76 0 0 1-.637 2.577c-.336 1.088-.369 2.168-.033 3.256.098.311.18.63.237.95.123.662-.123 1.185-.695 1.537-.426.262-.9.385-1.4.377-1.071-.009-2.11-.246-3.125-.565-1.341-.425-2.667-.9-4.008-1.333-1.178-.377-2.348-.778-3.543-1.08-1.824-.459-3.002-1.596-3.632-3.322-.45-1.22-.818-2.463-1.293-3.665-.466-1.178-1.014-2.316-1.546-3.47-.254-.54-.467-1.096-.5-1.693a2.965 2.965 0 0 1 .058-.85c.319-1.269 1.963-1.719 2.92-.802.344.327.532.744.672 1.186.114.352.204.704.319 1.055.122.344.294.401.564.164.205-.18.368-.41.507-.646.238-.41.426-.835.655-1.244.13-.229.286-.45.458-.646.483-.548 1.096-.72 1.8-.532.736.196 1.137.63 1.145 1.39.008.688-.082 1.383-.147 2.07-.016.459-.098.909-.164 1.424Zm9.99 6.275c-.426-.073-.867-.139-1.31-.237-1.431-.32-2.863-.654-4.294-.982-.819-.188-1.645-.335-2.439-.58-1.628-.492-2.454-1.661-2.667-3.314-.114-.908.05-1.792.156-2.683.074-.63.123-1.26.155-1.89.017-.27-.073-.532-.351-.663-.491-.237-1.015-.14-1.35.286-.197.254-.344.548-.508.835-.237.425-.441.883-.72 1.276-.18.254-.45.483-.728.63-.58.303-1.096.106-1.358-.499-.13-.295-.204-.622-.319-.925-.13-.343-.253-.687-.417-1.014-.147-.286-.417-.442-.753-.45-.687-.033-1.08.335-1.104 1.023-.025.605.155 1.17.433 1.701a35.407 35.407 0 0 1 2.087 4.901c.286.85.556 1.71.883 2.544.54 1.375 1.53 2.267 2.995 2.602.409.09.81.204 1.21.335 1.702.565 3.404 1.146 5.114 1.71 1.268.418 2.544.835 3.894.917.458.024.924.016 1.325-.27.27-.189.401-.426.32-.761-.074-.278-.131-.557-.213-.827-.23-.76-.344-1.538-.238-2.331.033-.442.123-.884.197-1.334Zm-3.38-4.393c-.572-.066-1.104-.131-1.66-.197-.04.352-.074.671-.106 1.023.548.082 1.063.164 1.611.254.058-.368.107-.704.156-1.08Zm2.34 3.452c.459.066.884.123 1.334.189.107-.434.197-.827.295-1.26-.475-.05-.908-.099-1.366-.148-.082.41-.164.794-.262 1.22Zm-1.742-2.25c.491.066.941.123 1.4.18.065-.409.122-.777.187-1.161-.49-.05-.957-.09-1.423-.14l-.164 1.122Zm-3.01-1.497c-.565-.082-1.089-.163-1.653-.253-.025.335-.041.63-.058.949.549.098 1.064.196 1.604.294.033-.343.066-.646.106-.99Zm5.162 1.784c.466.049.892.09 1.35.139.04-.442.082-.826.114-1.235-.45-.033-.859-.066-1.268-.099-.065.401-.122.77-.196 1.195Zm-9.368-2.585c.05.294.09.548.14.793.016.057.065.14.114.156.482.139.965.261 1.473.4.016-.351.032-.638.049-.932-.581-.131-1.146-.27-1.776-.417Zm8.468 3.231a177.23 177.23 0 0 0-1.391-.18c-.065.36-.123.671-.188 1.007.466.114.883.212 1.334.319.081-.393.155-.745.245-1.146Zm-3.829.303c.515.114.998.22 1.505.327.058-.319.115-.613.172-.933-.532-.081-1.03-.163-1.554-.245-.041.303-.082.556-.123.85Zm-2.192-.45 1.44.327c.04-.319.073-.58.114-.867-.524-.098-1.023-.188-1.555-.286v.826Zm-.778-.982-1.047-.245c.254.417.59.703 1.047.908v-.663Z"/><path d="M27.955 16.648c.008.057 0 .073.008.09.474.859.335 1.669-.18 2.454-.131.196-.27.393-.434.556-.393.385-.466.851-.343 1.359.114.458.253.908.368 1.358.18.695.237 1.39.057 2.094-.352 1.39-1.3 2.2-2.602 2.667-1.112.401-2.258.442-3.42.287a4.474 4.474 0 0 0-1.096-.033c-.548.065-1.03.327-1.3.818-.32.58-.647 1.17-.86 1.792-.261.777-.883 1.39-1.955 1.39-4.262-.024-8.525-.008-12.795-.016-.254 0-.516-.016-.753-.09-.933-.286-1.391-1.202-1.121-2.176.303-1.088.638-2.176.9-3.28.237-1.015.409-2.038.573-3.069.057-.368.04-.753.016-1.129-.033-.654-.295-1.17-.892-1.513-.442-.254-.859-.549-1.292-.827-.066-.04-.14-.081-.205-.139-.147-.13-.18-.352-.065-.499.114-.155.286-.237.458-.123.72.467 1.464.909 2.119 1.449.532.441.605 1.137.638 1.8.057 1.227-.164 2.421-.458 3.607a78.188 78.188 0 0 1-1.047 3.837c-.246.81.319 1.4 1.039 1.4 4.327-.017 8.647-.009 12.975-.009.614 0 .875-.229 1.12-.802.287-.679.574-1.358.958-1.98.581-.957 1.497-1.308 2.594-1.227.409.033.81.099 1.219.123a5.79 5.79 0 0 0 2.585-.376c1.652-.655 2.332-2.054 1.873-3.82-.139-.54-.302-1.08-.417-1.629-.13-.614.066-1.145.458-1.62.213-.262.434-.523.598-.81.368-.646.286-1.186-.213-1.742-.278-.311-.197-.581.196-.712.614-.205 1.056-.614 1.342-1.187.262-.531.13-1.038-.335-1.497-.483-.474-.5-.842-.058-1.358.401-.474.941-.736 1.497-.99.172-.073.344-.139.5-.229.409-.229.515-.531.302-.949a2.76 2.76 0 0 0-.409-.564c-1.047-1.22-2.11-2.422-3.15-3.641-.605-.704-.72-1.514-.409-2.38.27-.762.385-1.547.303-2.349-.008-.057-.008-.123-.008-.18.008-.229.147-.376.352-.384.212-.008.384.114.392.343.009.557.017 1.121-.032 1.677-.041.393-.164.778-.287 1.154-.212.614-.139 1.17.287 1.66a433.697 433.697 0 0 0 3.076 3.543c.31.36.605.72.712 1.195.13.572-.05 1.039-.508 1.383-.212.163-.482.253-.728.392-.4.237-.818.458-1.203.728-.245.164-.229.287-.032.5.703.752.802 1.603.294 2.503-.27.482-.687.875-1.202 1.17Z"/><path d="M6.487 16.256c0 .327-.237.482-.548.392a29.18 29.18 0 0 1-1.432-.45c-1.309-.458-2.552-1.03-3.69-1.832-.327-.23-.4-.434-.253-.646.147-.205.376-.197.695.032 1.358.957 2.88 1.571 4.459 2.046.164.049.335.09.5.147.163.057.269.172.269.31Z"/></g></g></g><defs><clipPath id="a"><use xlink:href="#d"/></clipPath><clipPath id="b"><use xlink:href="#d"/></clipPath><clipPath id="c"><use xlink:href="#d"/></clipPath></defs></svg>