<svg xmlns="http://www.w3.org/2000/svg" xmlns:xlink="http://www.w3.org/1999/xlink" width="32" height="32" fill="none" viewBox="0 0 32 32"><defs><path id="d" fill="#fff" d="M0 0h32v32H0z"/></defs><g clip-path="url(#a)"><g clip-path="url(#b)"><g fill="#049A9B" stroke="#049A9B" stroke-width=".444" clip-path="url(#c)"><path d="M.452 27.65V4.015c.017-.033.033-.073.05-.106.372-1.215 1.141-1.782 2.413-1.79h3.604c-.032-.567.097-1.036.51-1.377.195-.154.43-.25.648-.372h.673c.04.024.089.048.13.065.655.25 1.012.753 1.028 1.458 0 .064.008.137.016.226h3.628c.09 0 .187-.008.276.008a.438.438 0 0 1 .413.414.448.448 0 0 1-.356.494c-.097.024-.202.016-.3.016H9.54v1.49h9.906v-1.49h-3.718c-.097 0-.202.008-.3-.016a.447.447 0 0 1-.356-.494c.025-.227.179-.381.414-.414.089-.008.178-.008.275-.008h3.71c-.04-.567.097-1.036.51-1.377.186-.154.43-.25.648-.372h.672c.025.016.049.04.073.048.73.276 1.07.737 1.085 1.507 0 .057.009.113.017.194h.348c1.102 0 2.203-.008 3.305.008.267 0 .55.033.801.106.989.3 1.596 1.174 1.596 2.26 0 4.957 0 9.914-.008 14.87 0 .22.065.34.243.462 1.11.754 1.92 1.758 2.373 3.03.187.51.276 1.053.413 1.58v1.336c-.016.089-.04.17-.056.259-.486 2.64-2.009 4.382-4.569 5.208-.348.113-.72.162-1.085.243h-1.336c-.057-.016-.114-.04-.17-.049a6.194 6.194 0 0 1-3.459-1.62c-.21-.202-.421-.259-.697-.259-5.67.008-11.331.008-17.001.008-1.588 0-2.179-.405-2.73-1.87.008-.017.008-.033.008-.041Zm3.28-15.22v13.308c0 .446.009.454.47.454h14.645v-.268c0-.566-.04-1.133.016-1.692.097-.964.454-1.839.988-2.649.17-.26.43-.316.656-.162.211.138.268.389.13.64-.024.057-.065.105-.089.154-.664 1.093-.931 2.268-.778 3.54.316 2.656 2.576 4.73 5.24 4.794a5.457 5.457 0 0 0 5.582-6.123c-.381-3.248-3.58-5.435-6.747-4.625a5.346 5.346 0 0 0-1.637.713c-.178.113-.364.186-.566.073-.325-.178-.316-.591.016-.818a5.422 5.422 0 0 1 1.79-.81c.575-.138 1.166-.21 1.774-.324 0-.057.008-.154.008-.251 0-.365-.009-.73.008-1.094.008-.34.259-.534.559-.478.226.049.356.21.356.494.008.486 0 .972 0 1.442l1.425.397c0-.065.009-.113.009-.162V4.436c0-.818-.584-1.385-1.41-1.393-1.166-.008-2.324 0-3.49 0-.082 0-.155.016-.228.024v1.482h.349c.72 0 1.433-.008 2.154 0 .705.008 1.183.478 1.183 1.183.008 3.094 0 6.196 0 9.29 0 .357-.17.56-.462.56-.283 0-.462-.212-.47-.56v-2.608H8.358c-.122 0-.243.008-.365-.008a.438.438 0 0 1-.405-.421c-.016-.227.114-.421.34-.47.13-.032.26-.032.39-.032h16.871c.008-.114.016-.17.016-.227V5.732c0-.154-.08-.251-.243-.251h-2.51c-.203.988-.738 1.514-1.515 1.514-.357 0-.672-.121-.948-.34-.364-.3-.543-.696-.575-1.166H9.508c-.186.956-.72 1.49-1.482 1.506a1.455 1.455 0 0 1-.956-.324c-.38-.3-.559-.704-.6-1.19H4.147c-.43 0-.446.016-.446.445V11.5h2.106c.349 0 .56.186.567.461 0 .276-.21.462-.558.462-.584.008-1.175 0-1.758 0-.081.008-.195.008-.324.008Zm2.771-9.347c-.049-.016-.065-.024-.081-.024-1.264 0-2.527-.008-3.799 0-.372 0-.68.178-.923.462-.267.307-.34.672-.34 1.069v18.645c0 1.329-.008 2.649 0 3.977 0 .826.575 1.41 1.393 1.41h16.823c.073 0 .146-.017.21-.025-.194-.396-.404-.753-.542-1.142-.097-.283-.243-.348-.527-.348-4.851.008-9.695-.008-14.547.016-.874.008-1.401-.534-1.385-1.369.04-1.757.008-3.523.008-5.28V5.803c0-.793.454-1.247 1.24-1.247h2.454c.016-.518.016-.988.016-1.474Zm.94.6V5.35c0 .446.21.713.558.721.349.008.576-.267.576-.705V1.933c0-.397-.268-.664-.608-.64-.316.024-.526.267-.526.624-.009.591 0 1.182 0 1.766Zm12.935 0v1.733c0 .397.227.656.559.664.34.008.575-.26.583-.672V1.949c0-.389-.243-.648-.575-.648-.324 0-.559.26-.559.624-.008.583-.008 1.174-.008 1.758Z"/><path d="M10.74 24.264c.08-.94.153-1.87.258-2.81.04-.349-.024-.608-.267-.875-.615-.656-1.19-1.353-1.782-2.033-.405-.462-.291-.81.316-.948.948-.218 1.887-.437 2.835-.648.186-.04.3-.121.397-.283.494-.843 1.004-1.685 1.506-2.527.292-.486.673-.486.972 0 .502.842 1.013 1.676 1.507 2.527.097.162.21.243.397.283.98.219 1.952.438 2.924.665.47.105.6.494.283.858-.64.745-1.28 1.482-1.935 2.22a.686.686 0 0 0-.187.574c.09.956.17 1.912.26 2.868.048.559-.26.785-.786.567-.9-.38-1.806-.762-2.706-1.159a.567.567 0 0 0-.486 0c-.915.397-1.838.794-2.762 1.175-.42.194-.761-.024-.745-.454Zm6.463-.664c0-.162.008-.259 0-.356-.065-.745-.122-1.49-.203-2.236-.024-.25.025-.453.203-.632.25-.267.478-.542.72-.818.333-.38.657-.761 1.005-1.158-.121-.032-.21-.065-.292-.08-.737-.17-1.474-.341-2.219-.503a.839.839 0 0 1-.607-.445c-.373-.648-.762-1.288-1.15-1.928-.05-.081-.106-.162-.179-.268-.073.106-.13.187-.178.276-.324.543-.688 1.077-.972 1.644-.243.478-.583.713-1.11.802-.72.122-1.425.316-2.17.494.089.105.146.186.21.26.51.59 1.029 1.166 1.531 1.765.106.13.187.324.178.486-.016.502-.089 1.004-.13 1.507-.032.388-.056.769-.088 1.198.162-.064.259-.105.364-.146.68-.291 1.36-.575 2.033-.866.235-.105.454-.122.697 0 .259.13.534.235.81.348.494.21 1.004.43 1.547.656Zm9.315 2.9v1.344c-.008.81-.608 1.426-1.385 1.418-.77-.009-1.353-.608-1.361-1.41v-1.328c-.09-.008-.162-.024-.235-.024h-1.15a1.385 1.385 0 0 1-1.377-1.37c0-.753.6-1.36 1.369-1.376.453-.008.907 0 1.401 0 0-.486-.008-.948 0-1.41A1.357 1.357 0 0 1 24.98 21a1.355 1.355 0 0 1 1.539 1.304c.016.462 0 .931 0 1.417.089.009.162.025.235.025.397 0 .785-.008 1.182 0a1.367 1.367 0 0 1 1.345 1.369c0 .745-.591 1.36-1.337 1.377-.461.016-.923.008-1.425.008Zm.445-.924c.3 0 .608.008.907 0 .325-.008.519-.243.462-.534-.04-.22-.21-.357-.494-.357-.543-.008-1.093 0-1.636 0-.462 0-.608-.145-.608-.623 0-.543.009-1.094 0-1.637-.008-.348-.242-.542-.542-.477-.219.04-.349.218-.349.502-.008.559 0 1.11 0 1.668 0 .405-.162.567-.567.575H22.5c-.348 0-.534.154-.542.438-.008.291.186.461.542.461h1.612c.446 0 .591.154.6.608v1.636c0 .3.145.47.38.502.3.04.51-.154.51-.486.009-.575 0-1.15 0-1.725 0-.356.17-.518.519-.526.275-.025.559-.025.842-.025ZM16.207 8.485a1.73 1.73 0 0 1-1.71 1.726 1.73 1.73 0 1 1 .009-3.459c.94.008 1.7.786 1.7 1.733Zm-2.52 0c0 .438.357.794.786.794a.795.795 0 0 0 .794-.818.793.793 0 0 0-.802-.778.799.799 0 0 0-.777.802Zm-5.653.374H9.46c.356 0 .55.17.55.461 0 .284-.202.462-.55.47a174.2 174.2 0 0 1-2.908 0c-.356 0-.559-.21-.535-.51.025-.26.195-.405.503-.413.51-.009 1.012-.008 1.514-.008Zm12.903.947h-1.425c-.365 0-.56-.162-.56-.453-.007-.3.203-.478.576-.478h2.964c.276.032.462.21.454.47 0 .259-.178.445-.47.453-.51.017-1.02.008-1.539.008Z"/></g></g></g><defs><clipPath id="a"><use xlink:href="#d"/></clipPath><clipPath id="b"><use xlink:href="#d"/></clipPath><clipPath id="c"><use xlink:href="#d"/></clipPath></defs></svg>