<svg xmlns="http://www.w3.org/2000/svg" width="32" height="32" fill="none" viewBox="0 0 32 32"><g clip-path="url(#a)"><g fill="#049A9B" stroke="#049A9B" stroke-width=".444" clip-path="url(#b)"><path d="M15 31.48c-.518-.073-1.045-.137-1.556-.235-2.714-.518-5.039-1.774-6.967-3.75C4.67 25.638 3.495 23.442 3 20.906c-.64-3.297-.113-6.416 1.58-9.333.186-.316.446-.446.721-.373.3.081.446.284.47.657.049.761.324 1.434.843 2 .575.633 1.272.924 2.13.746.94-.202 1.572-.77 1.872-1.677.243-.721.138-1.426-.251-2.074-.519-.85-.721-1.766-.657-2.755.122-1.977 1.759-3.75 3.727-4.026.26-.04.527-.049.778-.106 1.15-.259 1.734-1.466 1.24-2.536-.008-.016-.017-.032-.025-.056-.226-.478-.154-.721.3-1.005h.43c.226.073.461.138.688.219A4.556 4.556 0 0 1 19.14 7.36c-.26.405-.486.81-.559 1.296-.243 1.532.826 2.933 2.398 3.12 1.483.178 2.844-.965 2.957-2.488.025-.3.122-.543.413-.648.292-.105.52.008.738.219 2.3 2.268 3.637 5.015 3.937 8.223.284 2.99-.405 5.769-2.009 8.313-.162.25-.373.405-.68.356-.252-.04-.487-.25-.487-.51 0-.187.073-.397.17-.56.705-1.15 1.248-2.365 1.524-3.686.802-3.807.016-7.243-2.423-10.289-.049-.065-.105-.121-.178-.202-.04.08-.081.145-.113.21-.73 1.548-2.326 2.455-3.979 2.277a3.928 3.928 0 0 1-3.435-3.063c-.25-1.093-.048-2.114.576-3.038.445-.656.705-1.37.656-2.163-.073-1.183-.632-2.09-1.645-2.714l-.097-.049c-.04.324-.057.64-.122.94-.3 1.313-1.393 2.228-2.738 2.333-1.612.122-2.795 1.159-3.07 2.706a3.174 3.174 0 0 0 .429 2.245c.413.672.6 1.41.567 2.195-.097 2.455-2.755 4.189-4.975 3.24-.818-.348-1.417-.955-1.863-1.717-.057-.097-.113-.186-.186-.308a10.24 10.24 0 0 0-.738 2.366c-.51 2.73-.202 5.364 1.11 7.835 1.84 3.443 4.7 5.566 8.548 6.27 2.9.535 5.63-.008 8.175-1.506.064-.033.121-.073.186-.106.316-.162.648-.073.826.21.178.293.114.665-.21.844-.592.332-1.183.664-1.799.931a12.11 12.11 0 0 1-3.986.989c-.057.008-.114.032-.17.048H15Z"/><path d="M18.176 18.33c-.016.05-.032.163-.08.26-1.094 2.26-2.188 4.513-3.29 6.765a.92.92 0 0 1-.38.365c-.22.113-.438.04-.617-.13-.162-.154-.242-.348-.178-.575.033-.105.081-.21.13-.308 1.061-2.188 2.115-4.367 3.176-6.554.04-.09.089-.187.146-.268a.609.609 0 0 1 .68-.202c.251.089.421.324.413.648Zm-5.228-1.521c1.086 0 1.945.866 1.945 1.952a1.954 1.954 0 0 1-1.953 1.953 1.982 1.982 0 0 1-1.952-1.961 1.959 1.959 0 0 1 1.96-1.944Zm.713 1.96a.709.709 0 0 0-.696-.729.717.717 0 0 0-.746.713.72.72 0 0 0 .713.713c.405.008.721-.3.73-.697Zm5.229 7.859a1.93 1.93 0 0 1-1.953-1.937c0-1.077.867-1.96 1.936-1.96a1.959 1.959 0 0 1 1.961 1.944 1.947 1.947 0 0 1-1.944 1.953Zm-.009-1.232a.732.732 0 0 0 .721-.713.737.737 0 0 0-.712-.721.726.726 0 0 0-.73.73.709.709 0 0 0 .721.704Zm5.8 2.504a.608.608 0 0 1-.607-.616.639.639 0 0 1 .632-.608.614.614 0 0 1 .591.608c-.008.356-.275.623-.616.615Z"/></g></g><defs><clipPath id="a"><path fill="#fff" d="M0 0h32v32H0z"/></clipPath><clipPath id="b"><path fill="#fff" d="M2.222 0h27.556v32H2.222z"/></clipPath></defs></svg>