<svg xmlns="http://www.w3.org/2000/svg" width="32" height="32" fill="none" viewBox="0 0 32 32"><g clip-path="url(#a)"><g clip-path="url(#b)"><g fill="#049A9B" stroke="#049A9B" stroke-width=".432" clip-path="url(#c)"><path d="M1.115 28.699c.34-1.01.678-2.01 1.001-3.02.174-.543.458-.977.994-1.213.055-.024.102-.126.118-.197.023-.071.008-.158.008-.237V12.09c0-.11-.008-.22.008-.323a.413.413 0 0 1 .402-.394c.228-.016.41.11.457.331.023.095.016.197.016.292 0 .977.007 1.947 0 2.924 0 .213.031.3.283.3 4.533-.008 9.066-.008 13.598 0 .237 0 .3-.063.292-.292a900.958 900.958 0 0 1 0-6.535c0-.244-.079-.291-.3-.291-4.524.008-9.041.008-13.566 0-.244 0-.323.063-.307.307.023.347.007.686 0 1.033-.008.307-.174.489-.434.489-.276.007-.45-.182-.45-.505 0-1.111-.007-2.223 0-3.342a2.046 2.046 0 0 1 1.837-2.01 3.08 3.08 0 0 1 .387-.024h11.47c.78 0 1.418.268 1.876.922.283.402.37.86.362 1.348v17.642c0 .37 0 .37.363.37h1.387c.355 0 .355 0 .355-.346V12.61c0-.434.07-.844.252-1.23.174-.37.34-.757.52-1.127.19-.387.442-.725.82-.946.166-.095.134-.221.134-.355 0-1.506.024-3.011-.008-4.525-.015-1.12.37-2.01 1.254-2.696.41-.315.796-.678 1.206-1 .181-.143.394-.253.591-.371h.181c.024.015.048.039.071.047.663.244.804.772.363 1.316-.236.292-.48.576-.71.867a1.89 1.89 0 0 0-.449 1.222v5.195c0 .087.047.205.11.245.466.276.742.701.962 1.166.34.741.694 1.45.686 2.318-.031 3.705-.016 7.402-.016 11.107 0 .07.008.142 0 .205-.023.197.048.284.26.268.332-.016.67-.008 1.002-.008 1.024 0 1.537.37 1.86 1.34.331 1.01.67 2.01 1.001 3.02v.59c-.15.426-.347.836-.757 1.065-.22.126-.48.197-.725.291H2.566c-.26-.11-.536-.18-.773-.323-.386-.228-.56-.622-.71-1.032.032-.166.032-.363.032-.56Zm21.048-6.417c0 .639.008 1.222-.008 1.813-.008.205.079.245.26.245.284-.008.568-.008.86 0 .315.008.48.173.48.441 0 .276-.173.434-.473.45-.11.007-.213 0-.323 0H4.048c-.11 0-.221-.009-.324.007-.339.024-.575.197-.685.52-.34 1.01-.663 2.019-.994 3.028-.094.283-.015.528.182.733.181.197.417.228.678.228h26.683c.75 0 1.065-.425.836-1.135l-.875-2.664c-.19-.584-.378-.718-.985-.718-.899 0-1.79 0-2.689-.008-.315 0-.488-.157-.496-.425-.008-.276.173-.45.496-.465.119-.008.237.015.355-.008.063-.016.158-.095.158-.142.008-.615.008-1.23.008-1.884-1.443 1.088-2.814 1.096-4.233-.016ZM10.89 24.34c-.047-.213-.118-.387-.118-.56 0-.236-.095-.3-.316-.347-1.718-.402-2.806-2.042-2.49-3.768.244-1.332 1.04-2.223 2.333-2.593 1.332-.387 2.514-.024 3.413 1.032.883 1.04 1.033 2.231.489 3.485-.442 1-1.23 1.615-2.294 1.852-.237.047-.292.134-.213.355.126.37.363.544.804.544 1.829 0 3.666-.008 5.495.008.26 0 .3-.095.3-.324-.009-2.53-.009-5.06 0-7.599 0-.26-.064-.331-.332-.323-4.509.008-9.026.008-13.535 0-.244 0-.307.063-.307.307.023 2.539.047 5.085.055 7.623 0 .245.063.316.307.308 2.05-.008 4.1-.008 6.149-.008.079.008.157.008.26.008Zm.268-17.106H14.5c1.175 0 2.342-.008 3.516.007.205 0 .284-.055.268-.268-.015-.283.032-.575-.023-.85a1.943 1.943 0 0 0-.3-.75c-.268-.362-.686-.418-1.111-.418H5.56c-.134 0-.276.008-.41.024A1.172 1.172 0 0 0 4.126 6.13c-.007.268.016.536-.007.796-.016.245.063.315.307.308 2.247-.008 4.493 0 6.732 0Zm15.206 11.24v-1.537c0-.173 0-.354-.04-.528-.228-1.087-1.182-1.773-2.309-1.663-1.017.095-1.837.993-1.844 2.081a113.443 113.443 0 0 0 0 3.28c.015 1.19.93 2.112 2.089 2.12 1.166.008 2.088-.914 2.104-2.128.008-.537 0-1.08 0-1.624Zm-.023-3.83c.008-.048.023-.087.023-.119 0-.717.008-1.434-.008-2.152 0-.15-.039-.315-.094-.457a34.081 34.081 0 0 0-.678-1.443c-.166-.339-.457-.504-.836-.512-.252 0-.512.016-.764-.008-.505-.04-.852.19-1.088.607-.15.268-.26.552-.402.82-.276.52-.363 1.072-.34 1.655.024.466.009.923.009 1.388 0 .07.015.142.023.229 1.396-1.08 2.767-1.088 4.155-.008Zm-14.67 7.922c1.119-.134 1.994-1.261 1.93-2.491a2.4 2.4 0 0 0-2.333-2.262c-1.269-.024-2.357.93-2.46 2.167-.11 1.254.75 2.413 1.924 2.586.071-.41.071-.41-.283-.56-.836-.362-1.317-1.277-1.136-2.152.198-.93.978-1.576 1.916-1.569a1.947 1.947 0 0 1 1.884 1.538 1.94 1.94 0 0 1-1.143 2.175c-.37.166-.37.166-.3.568Zm13.408-20.29c-.685.433-1.182 1-1.182 1.867 0 1.025 0 2.05-.008 3.067 0 .158.04.244.213.229a.891.891 0 0 1 .205 0c.252.039.307-.071.307-.316-.015-.993.008-1.986-.008-2.98 0-.67.11-1.292.473-1.868Zm-13.432 18.87c.41-.19.615-.528.591-.962-.016-.402-.213-.693-.591-.898v1.86Zm-.93 0c.015-.047.031-.087.04-.126 0-.481.007-.962 0-1.45 0-.072-.056-.135-.08-.198-.063.032-.126.048-.173.087-.544.457-.442 1.293.213 1.687ZM24.275 8.329c-.378 0-.378 0-.378.347 0 .363 0 .363.331.37.394 0 .394 0 .394-.338 0-.379 0-.379-.347-.379Z"/><path d="M25.458 18.474c0 .37.016.75 0 1.12a1.177 1.177 0 0 1-1.072 1.143 1.157 1.157 0 0 1-1.238-.836 1.217 1.217 0 0 1-.047-.378 91.607 91.607 0 0 1 0-2.097c.008-.725.48-1.19 1.182-1.182.71.007 1.175.473 1.183 1.198 0 .346-.008.693-.008 1.032Zm-1.482-.008V19.5c0 .197.063.331.276.34.22 0 .315-.135.315-.34v-2.065c0-.19-.095-.323-.3-.323-.212 0-.291.126-.291.323.008.347 0 .694 0 1.032Z"/></g></g></g><defs><clipPath id="a"><path fill="#fff" d="M0 0h32v32H0z"/></clipPath><clipPath id="b"><path fill="#fff" d="M0 0h32v31.119H0z"/></clipPath><clipPath id="c"><path fill="#fff" d="M.008 0h31.984v31.119H.008z"/></clipPath></defs></svg>