<svg xmlns="http://www.w3.org/2000/svg" width="178" height="80" fill="none" viewBox="0 0 178 80"><path fill="#000" d="M3.349 52.984V42.842H2.247v14.732H3.35l9.076-11.541v11.54h1.101v-14.73h-1.894L3.349 52.984Zm20.707-3.454h-5.903v-6.688h-2.688v14.732h2.688v-6.951h5.904v6.95h2.687v-14.73h-2.688v6.688Zm30.402-4.634c-1.366-1.53-3.129-2.317-5.332-2.317s-3.965.743-5.33 2.317c-1.28 1.4-1.896 3.104-1.896 5.115v.568c0 2.011.616 3.716 1.894 5.115 1.366 1.53 3.128 2.317 5.331 2.317 2.203 0 4.01-.743 5.376-2.317 1.277-1.399 1.894-3.104 1.894-5.115v-.568c0-1.967-.66-3.716-1.938-5.115Zm-1.587 9.792c-.749 1.53-1.982 2.317-3.745 2.317-1.762 0-2.996-.786-3.745-2.317-.529-1.092-.793-2.535-.793-4.371 0-1.749.264-3.235.837-4.328.75-1.574 1.983-2.317 3.701-2.317 1.322 0 2.424.481 3.172 1.399.926 1.18 1.41 2.885 1.41 5.246-.044 1.792-.308 3.235-.837 4.371ZM37.23 49.53h-5.86v-6.688h-2.687v14.732h2.687v-6.951h5.86v6.95h2.732v-14.73H37.23v6.688Z"/><path fill="#049A9B" d="M90.454 57.705h2.688V44.022h5.904v13.683h2.687V42.973h-11.28v14.732Zm-8.9-4.285-4.01-10.447h-2.951v14.732h1.057V45.902l5.11 12.021 5.068-12.546v12.328h2.643V42.973h-2.643L81.554 53.42Zm-19.166-.305V42.973h-1.057v14.732h1.057l9.12-11.541v11.54h1.102v-14.73h-1.94l-8.283 10.142Zm41.24 4.59h1.366l3.965-9.924 4.009 9.924h2.952l-6.168-14.732-6.124 14.732Zm19.474-12.809-5.331 12.809h1.366l1.321-3.497h5.067l1.63 3.497h2.952l-6.168-14.732-.837 1.923Zm0 8.219h-2.115l2.115-5.334 2.159 5.334h-2.159Zm17.447-10.142v6.688h-5.859v-6.688h-2.732v14.732h2.732V50.71h5.859v6.995h2.732V42.973h-2.732Z"/><path fill="#049A9B" fill-rule="evenodd" d="M134.778 17.006c-.793 1.836-.176 3.016-.221 3.76-.22 2.403-4.494 2.272-3.965 7.081.529 2.098 2.291 2.623 3.833 3.104 3.569 1.136 9.165-1.18 10.663-2.055-2.644-.044-12.205 2.754-11.059-2.579.617-1.836 2.952-2.186 2.996-4.284.044-2.58-1.586-3.629.308-4.328 2.379-.918 6.433 3.322 9.385 2.58-3.305-.22-8.944-7.957-11.94-3.28Zm23.968-10.973c-1.983-.394-4.274 1.049-5.948 1.049-3.084-.044-3.04-2.317-6.961-1.18-1.851.743-2.336 2.054-2.424 3.497-.132 3.235 3.745 7.738 4.803 8.918C147.863 16 142.4 8 147.819 8.175c1.939.262 2.644 1.355 4.715 1.399 2.555.043 4.229-1.836 5.595-.787 2.468 1.923-2.071 7.126-1.145 9.574.22-2.93 8.151-10.58 1.762-12.328Zm11.191 14.776c-.088-.743.529-1.836-.22-3.672-2.952-4.46-8.371 3.016-11.544 3.19 2.82.7 6.785-3.365 9.077-2.49 1.85.699.176 1.791.22 4.283 0 2.055 2.555 2.273 3.128 4.066 1.146 5.158-8.327 2.404-10.883 2.535 1.454.831 6.874 3.06 10.31 1.968 1.542-.481 2.908-.875 3.701-2.886.353-4.721-3.569-4.634-3.789-6.994Z" clip-rule="evenodd"/><path fill="url(#a)" fill-rule="evenodd" d="m156.719 19.454-8.547-.044-1.014 1.792h10.443l-.882-1.748Z" clip-rule="evenodd"/><path fill="url(#b)" d="M156.323 30.95c-.044-.043-.176 0-.265 0l-3.48.525-3.569.481c-.397.044-.705.612-.705 1.312 0 .655.529 1.224.749 1.311.044 0 .132.044.22 0l3.349-.48 3.569-.525.132-.088c.22-.043.396-.612.396-1.224-.044-.7-.176-1.224-.396-1.311Z"/><path fill="url(#c)" d="M149.317 35.148c.044.218.221.524.617.524h4.891c.528-.131.837-.656.925-1.53l-3.216.525-3.217.48Z"/><path fill="url(#d)" d="M157.028 24.656h-.044c-.044 0-.044 0-.088.043l-4.318.612-4.494.656c-.397.044-.705.569-.705 1.268 0 .7.528 1.268.749 1.268h.132l4.318-.612 4.362-.612.088-.044c.22-.087.396-.612.396-1.268s-.176-1.224-.396-1.311Z"/><path fill="url(#e)" d="M157.468 21.508c-.088-.043-.264-.044-.352.044l-4.538.612-4.582.612-.177.087c-.396.044-.617.569-.617 1.268 0 .7.309 1.268.749 1.268.045 0 .133.044.177.044l4.406-.656 4.758-.7.132-.043c.221-.088.397-.612.397-1.268s-.132-1.18-.353-1.268Z"/><path fill="url(#f)" d="m156.543 27.803-.044-.043s-.044 0-.088.043l-3.789.569-4.142.568c-.396.044-.705.612-.705 1.311 0 .656.529 1.224.749 1.312.044 0 .176.044.221 0l3.877-.569 3.833-.568.132-.087c.22-.088.397-.612.397-1.268-.088-.7-.221-1.224-.441-1.268Z"/><path fill="url(#g)" fill-rule="evenodd" d="m147.247 21.465.132.655 6.697-.655h-6.829Z" clip-rule="evenodd"/><path fill="#575756" fill-rule="evenodd" d="m166.06 39.694-.088-2.186h-28.374l.132 2.186h11.808v.087h.132l.044 17.137c-.353 4.11-.661 5.77-2.556 8.175-3.348 4.328-9.252 7.606-13.746 8.568l-7.666-7.475c1.277.262 3.877 1.486 5.948 1.923 7.049 1.53 9.208-.524 11.058-2.972-4.361-.962-10.794-1.88-17.315-2.492-1.189-.131-2.423-.219-3.569-.306-.925-.044-1.806-.131-2.731-.175-1.322-.044-2.556-.131-3.789-.175-.97-.044-1.895-.044-2.776-.044-1.278 0-2.468.044-3.613.044-.264 0-.529.044-.749.044-.617.044-1.19.044-1.762.087-2.424.131-4.627.263-6.741.525C76.883 65.049 70.01 72.699 56.66 75.19l6.521-7.825c2.247.7 4.406 1.399 6.477 2.317l6.52-2.536a152.473 152.473 0 0 0-20.002-4.284 577.29 577.29 0 0 1-3.084-.393 59.455 59.455 0 0 0-2.776-.306c-1.322-.131-2.644-.219-3.921-.306-.794-.044-1.543-.044-2.336-.131-2.467-.088-4.934-.131-7.313-.044-1.058 0-2.071.044-3.085.087-1.498.088-2.996.175-4.494.306-8.988.831-17.271 2.798-24.85 5.727-2.202.83-2.819 1.487-4.14 2.055l2.995 1.617c3.745.831 5.772.7 9.297-1.224 3.216-1.748 6.3-3.278 10.486-4.284l3.48 7.257c-2.07-.787-7.798-2.317-10.353-3.366-2.82.962-3.878 2.273-6.477 3.41l7.005 2.535c3.525.962 7.358 1.924 12.557 2.623 1.41.175 2.908.35 4.494.481.97.088 1.983.175 3.084.219 2.204.174 4.67.218 7.314.262h2.336a99.607 99.607 0 0 0 3.92-.175c.97-.087 1.895-.175 2.777-.306 1.057-.175 2.114-.35 3.084-.525 12.821-2.71 19.386-9.836 39.697-12.327l-.66 8.043c-3.481-.35-12.425-3.366-13.086-3.803-2.996 1.268-3.701 1.18-6.345 2.23 6.213 2.098 14.452 4.459 23.925 5.901 2.202.306 4.449.612 6.741.83.837.088 1.63.176 2.511.22 1.19.087 2.379.174 3.613.174.925.044 1.85.088 2.776.088 1.277.043 2.555 0 3.789 0 .484-.044.925-.044 1.365-.044.441-.044.882-.044 1.366-.044 1.102-.043 2.335-.175 3.569-.306 11.852-1.442 28.859-7.125 29.564-22.95l-.044-16.744h11.103v.044ZM33.53 75.016c-1.851-.393-2.997-.524-4.495-1.005-.176-.044-.264-.087-.485-.175l-4.097-8.131h-.044c1.542-.306 3.04-.612 4.626-.787l1.983-.262 2.467 9.748.176.612h-.132Zm5.33.438c-.749-.088-1.542-.044-2.247-.088-.396 0-.837-.044-1.19-.087l-1.85-10.011-.176-.83c.044 0 .088 0 .176-.045 1.014-.043 2.027-.13 3.084-.174 1.058-.044 2.16-.044 3.217-.044L38.86 75.454Zm5.067-.35-.264.787a36.163 36.163 0 0 1-3.128-.263l1.19-11.41c.748 0 1.497.044 2.202.044.793.044 1.586.088 2.335.175.353.044.705.044 1.058.088l-1.058 3.235-2.335 7.344Zm4.935.918c-.881.044-1.763 0-2.556 0-.352-.044-.704-.044-1.013-.044l1.013-3.06 2.82-8.262c.397.043.75.087 1.102.13l2.776.394c.748.088 1.41.219 2.114.35l-2.114 3.497-2.776 4.678-1.366 2.317Zm5.067-.35c-.309.044-.617.044-.925.088-.661.087-1.41.174-2.115.174l2.114-3.54 3.085-5.115.837-1.4c1.498.263 2.908.613 4.362 1.006l-5.155 6.164-2.203 2.623Zm45.733-.83a212.23 212.23 0 0 0-2.864-.394l.75-8.612c.837-.087 1.453-.175 2.114-.262.529-.088 1.102-.175 1.807-.175l1.057 9.836c-.925-.131-1.894-.262-2.864-.394Zm9.253 1.049c-.793-.044-1.63-.175-2.512-.263-.616-.043-1.189-.13-1.85-.174l-1.322-10.186c.925-.044 2.203-.175 3.172-.219h.177l2.335 8.481.661 2.404c-.221.044-.441 0-.661-.043Zm6.388.48c-.881-.043-1.806-.043-2.775-.13-.397-.044-.749-.044-1.102-.088l-2.511-8.787-.661-2.36h.661c1.057-.044 2.511-.088 3.348-.044l.265.656 2.775 7.125 1.454 3.672c-.44-.043-.925-.043-1.454-.043Zm6.565-.218c-.837.131-1.718.262-2.731.262h-.529l-3.305-7.912-1.453-3.541c.572.043 1.013.043 1.453.043.529 0 1.058-.043 1.763.044l2.027 3.017 2.731 3.978 2.556 3.76a38.68 38.68 0 0 0-2.512.349Zm5.552-.656c-.397.044-.749.088-1.146.131l-.837-1.224-3.569-5.377-2.555-3.847c.749.088 1.63.175 2.555.263l1.058.13 2.555 2.536 6.124 6.12c-1.63.394-3.48 1.225-4.185 1.268Z" clip-rule="evenodd"/><path fill="#575756" d="M172.845 46.164c-.088.218-.264.568-.485 1.05-.176.48-.396.96-.66 1.486-.221.524-.441.961-.617 1.31-.177.394-.573 1.138-.705 1.312l-3.173-5.245-1.718.043h-.044c0 .044.044.044.044.088.176.35.485.83.837 1.399.397.655.837 1.311 1.234 1.967a71.52 71.52 0 0 0 1.19 1.923c.396.612.616 1.18.837 1.574l-.617 1.224a29.13 29.13 0 0 1-.661 1.268l1.19.044c.22-.569.616-1.487 1.233-2.755.617-1.224 1.234-2.535 1.895-3.803.661-1.311 1.189-2.317 1.586-2.972h-1.366v.087Zm-8.019.568c-.528-.393-1.189-.568-2.115-.568h-.088l-3.172.044v9.486l1.85-.044v-4.153c.529 0 .97-.043 1.41-.087.309-.044.617-.088.838-.175.616-.175 1.145-.48 1.498-.918.22-.262.396-.656.484-1.093.044-.218.044-.48.044-.743 0-.219-.044-.437-.044-.612-.132-.481-.396-.83-.705-1.137Zm-1.013 3.235c-.176.306-.529.569-.969.656-.044.044-.089.044-.177.044-.396.043-1.101.043-1.41.043v-3.803h1.543c.352 0 .66.175.925.525.264.35.396.787.396 1.311 0 .481-.132.874-.308 1.224Z"/><path stroke="#575756" stroke-miterlimit="10" stroke-width=".421" d="M173.13 10.912c2.495-1.026 3.68-3.865 2.647-6.34-1.034-2.477-3.895-3.652-6.39-2.627-2.496 1.026-3.681 3.864-2.647 6.34 1.033 2.476 3.895 3.652 6.39 2.627Z"/><path fill="#575756" d="M172.845 8.131h-.837a9.784 9.784 0 0 0-.485-1.224c-.132-.175-.308-.218-.573-.218h-.308c0 .48 0 .961.044 1.442h-.793c.044-.568.044-1.18.044-1.88 0-.655 0-1.267-.044-1.705h1.322c.837 0 1.278.306 1.278.875 0 .48-.265.787-.749.962v.043c.176.044.352.219.484.437.176.175.397.612.617 1.268Zm-1.057-2.535c0-.35-.221-.569-.705-.569-.177 0-.309 0-.485.044 0 .306.044.656.044 1.137h.264c.573 0 .882-.219.882-.612Z"/><defs><linearGradient id="a" x1="147.158" x2="157.595" y1="20.31" y2="20.31" gradientUnits="userSpaceOnUse"><stop stop-color="#AAAAA9"/><stop offset=".48" stop-color="#DCDCDC"/><stop offset="1" stop-color="#AAAAA9"/></linearGradient><linearGradient id="b" x1="147.158" x2="157.778" y1="32.743" y2="32.743" gradientUnits="userSpaceOnUse"><stop stop-color="#646363"/><stop offset=".49" stop-color="#8A8989"/><stop offset="1" stop-color="#646363"/></linearGradient><linearGradient id="c" x1="147.158" x2="157.778" y1="34.915" y2="34.915" gradientUnits="userSpaceOnUse"><stop stop-color="#646363"/><stop offset=".49" stop-color="#8A8989"/><stop offset="1" stop-color="#646363"/></linearGradient><linearGradient id="d" x1="147.158" x2="157.779" y1="26.59" y2="26.59" gradientUnits="userSpaceOnUse"><stop stop-color="#646363"/><stop offset=".49" stop-color="#8A8989"/><stop offset="1" stop-color="#646363"/></linearGradient><linearGradient id="e" x1="147.158" x2="157.778" y1="23.448" y2="23.448" gradientUnits="userSpaceOnUse"><stop stop-color="#646363"/><stop offset=".49" stop-color="#8A8989"/><stop offset="1" stop-color="#646363"/></linearGradient><linearGradient id="f" x1="147.158" x2="157.778" y1="29.641" y2="29.641" gradientUnits="userSpaceOnUse"><stop stop-color="#646363"/><stop offset=".49" stop-color="#8A8989"/><stop offset="1" stop-color="#646363"/></linearGradient><linearGradient id="g" x1="147.158" x2="153.987" y1="21.79" y2="21.79" gradientUnits="userSpaceOnUse"><stop stop-color="#686867"/><stop offset="1" stop-color="#B9B8B8"/></linearGradient></defs></svg>